<?xml version="1.0" standalone="no"?>
<!DOCTYPE svg PUBLIC "-//W3C//DTD SVG 20010904//EN"
 "http://www.w3.org/TR/2001/REC-SVG-20010904/DTD/svg10.dtd">
<svg version="1.0" xmlns="http://www.w3.org/2000/svg"
 width="15px" height="15px" viewBox="0 0 619.000000 649.000000"
 preserveAspectRatio="xMidYMid meet">

<g transform="translate(0.000000,649.000000) scale(0.100000,-0.100000)"
fill="#000000" stroke="none">
<path d="M1335 6464 c-268 -41 -462 -111 -653 -237 -230 -152 -374 -317 -497
-572 -360 -742 -154 -1700 615 -2849 188 -282 421 -585 685 -891 389 -451 915
-972 1375 -1359 264 -223 689 -546 716 -546 5 0 58 75 119 166 93 141 107 167
93 175 -72 40 -408 295 -408 310 0 16 265 274 417 404 81 70 226 190 321 266
175 140 369 331 735 723 311 335 549 637 687 875 109 188 288 615 405 964 187
559 271 1045 236 1372 -42 393 -212 629 -518 717 -109 32 -333 32 -477 0 -296
-65 -559 -189 -931 -437 -447 -299 -885 -702 -1178 -1082 l-55 -73 -6 68 c-3
37 -8 105 -12 152 -30 421 -122 808 -258 1085 -82 166 -163 280 -284 397 -184
179 -379 285 -632 345 -87 20 -136 25 -285 28 -99 2 -193 1 -210 -1z m321
-405 c222 -31 402 -125 560 -291 224 -238 352 -652 394 -1276 12 -187 13 -680
0 -932 -5 -102 -8 -186 -6 -187 1 -1 92 -5 202 -9 l201 -7 6 75 c7 95 60 257
127 387 244 475 789 1035 1385 1423 384 251 667 362 920 362 148 0 217 -36
272 -141 101 -191 90 -542 -34 -1038 -115 -463 -377 -1125 -548 -1386 -181
-276 -407 -540 -894 -1044 -192 -198 -250 -266 -417 -488 -206 -273 -378 -525
-470 -688 -31 -55 -58 -99 -59 -99 -8 0 -293 243 -455 388 -217 194 -688 663
-878 876 -845 940 -1352 1786 -1504 2508 -31 146 -32 164 -33 378 0 151 4 245
13 285 57 257 158 459 303 604 232 232 582 347 915 300z"/>
</g>
</svg>
