<?xml version="1.0" standalone="no"?>
<!DOCTYPE svg PUBLIC "-//W3C//DTD SVG 20010904//EN"
 "http://www.w3.org/TR/2001/REC-SVG-20010904/DTD/svg10.dtd">
<svg version="1.0" xmlns="http://www.w3.org/2000/svg"
 width="20px" height="15px" viewBox="0 0 240.000000 240.000000"
 preserveAspectRatio="xMidYMid meet">

<g transform="translate(0.000000,240.000000) scale(0.100000,-0.100000)"
fill="#000000" stroke="none">
<path d="M1293 2386 c-133 -43 -243 -161 -374 -400 -74 -135 -121 -181 -248
-247 -210 -106 -350 -291 -368 -483 -10 -116 23 -178 144 -267 90 -65 99 -86
77 -178 -25 -107 -21 -208 10 -277 25 -54 26 -58 9 -68 -10 -5 -37 -28 -59
-50 -124 -122 -56 -350 119 -401 47 -14 133 -15 658 -13 l604 3 55 26 c74 35
110 67 145 131 26 46 30 63 30 133 0 98 -21 148 -94 229 -36 40 -51 64 -51 85
0 50 -50 203 -91 280 -73 136 -173 243 -315 339 -60 40 -124 103 -124 123 0
34 57 103 197 236 201 191 228 234 228 363 0 75 -3 91 -27 132 -34 57 -90 105
-141 120 -28 9 -43 21 -57 47 -24 48 -75 98 -124 123 -51 26 -147 33 -203 14z
m137 -206 c49 -49 16 -139 -147 -387 -8 -11 30 23 85 78 142 142 235 180 278
114 33 -50 16 -77 -175 -265 -202 -200 -231 -242 -239 -350 -8 -114 44 -202
162 -278 222 -141 344 -327 371 -562 7 -63 9 -67 66 -120 68 -63 83 -100 63
-149 -24 -58 -45 -61 -414 -61 l-332 0 -29 29 c-52 52 -28 129 46 150 39 11
146 -8 227 -40 27 -10 52 -19 55 -19 4 0 -11 19 -34 43 -101 103 -156 255
-135 370 15 82 46 140 104 198 l50 50 -38 -16 c-109 -45 -209 -140 -242 -228
-11 -29 -23 -82 -27 -120 -7 -63 -9 -67 -33 -67 -14 0 -45 -9 -69 -21 -91 -44
-141 -148 -129 -266 l7 -63 -120 0 c-119 0 -120 0 -141 27 -41 52 -10 122 72
164 21 10 44 19 52 19 27 0 26 18 -4 67 -16 26 -37 79 -46 116 -16 63 -16 75
-1 170 10 56 17 116 17 132 0 86 -47 164 -142 235 -97 73 -108 125 -50 233 40
75 133 155 247 212 124 62 209 143 274 260 80 145 135 229 180 278 76 82 150
108 191 67z"/>
<path d="M748 1424 c-34 -18 -48 -43 -48 -84 0 -78 111 -111 171 -51 81 82
-19 192 -123 135z"/>
</g>
</svg>
